# AST/ASF file generated using VICON BodyLanguage
# -----------------------------------------------
:version 1.10
:name VICON
:units
  mass 1.0
  length 0.45
  angle deg
:documentation
   .ast/.asf automatically generated from VICON data using
   VICON BodyBuilder and BodyLanguage model FoxedUp or BRILLIANT.MOD
:root
   order TX TY TZ RX RY RZ
   axis XYZ
   position 0 0 0  
   orientation 0 0 0 
:bonedata
  begin
     id 1 
     name lhipjoint
     direction 0.707368 -0.647095 0.284426 
     length 2.60678 
     axis 0 0 0  XYZ
  end
  begin
     id 2 
     name lfemur
     direction 0.34202 -0.939693 0  
     length 6.63812  
     axis 0 0 20  XYZ
    dof rx ry rz
    limits (-160.0 20.0)
           (-70.0 70.0)
           (-60.0 70.0)
  end
  begin
     id 3 
     name ltibia
     direction 0.34202 -0.939693 0   
     length 7.51178   
     axis 0 0 20   XYZ
    dof rx
    limits (-10.0 170.0)
  end
  begin
     id 4 
     name lfoot
     direction 0.121251 -0.333133 0.935051   
     length 1.83716   
     axis -90 7.62852e-016 20   XYZ
    dof rx rz
    limits (-45.0 90.0)
           (-70.0 20.0)
  end
  begin
     id 5 
     name ltoes
     direction 1.53611e-011 -4.21962e-011 1   
     length 0.916133   
     axis -90 7.62852e-016 20   XYZ
    dof rx
    limits (-90.0 20.0)
  end
  begin
     id 6 
     name rhipjoint
     direction -0.692419 -0.660507 0.290321   
     length 2.55385  
     axis 0 0 0  XYZ 
  end
  begin
     id 7 
     name rfemur
     direction -0.34202 -0.939693 0   
     length 7.29079   
     axis 0 0 -20   XYZ
    dof rx ry rz
    limits (-160.0 20.0)
           (-70.0 70.0)
           (-70.0 60.0)
  end
  begin
     id 8 
     name rtibia
     direction -0.34202 -0.939693 0   
     length 7.47143   
     axis 0 0 -20   XYZ
    dof rx
    limits (-10.0 170.0)
 end
 begin
     id 9 
     name rfoot
     direction -0.119907 -0.329441 0.936532   
     length 1.79439  
     axis -90 -7.62852e-016 -20   XYZ
    dof rx rz
    limits (-45.0 90.0)
           (-20.0 70.0)
  end
  begin
     id 10 
     name rtoes
     direction -1.53571e-011 -4.21961e-011 1   
     length 0.896039   
     axis -90 -7.62852e-016 -20   XYZ
    dof rx
    limits (-90.0 20.0)
  end
  begin
     id 11 
     name lowerback
     direction 0.0367721 0.992912 -0.113016   
     length 1.73542   
     axis 0 0 0   XYZ
    dof rx ry rz
    limits (-20.0 45.0)
           (-30.0 30.0)
           (-30.0 30.0)
  end
  begin
     id 12 
     name upperback
     direction -0.000314626 0.990678 0.136227   
     length 1.7514   
     axis 0 0 0   XYZ
    dof rx ry rz
    limits (-20.0 45.0)
           (-30.0 30.0)
           (-30.0 30.0)
  end
  begin
     id 13 
     name thorax
     direction -0.0226159 0.981151 0.191917   
     length 1.71471   
     axis 0 0 0   XYZ
    dof rx ry rz
    limits (-20.0 45.0)
           (-30.0 30.0)
           (-30.0 30.0)
  end
  begin
     id 14 
     name lowerneck
     direction 0.0219333 0.998071 0.0580739   
     length 1.65882   
     axis 0 0 0   XYZ
    dof rx ry rz
    limits (-20.0 45.0)
           (-30.0 30.0)
           (-30.0 30.0)
  end
  begin
     id 15 
     name upperneck
     direction 0.0384529 0.980058 -0.194957   
     length 1.6612   
     axis 0 0 0   XYZ
    dof rx ry rz
    limits (-20.0 45.0)
           (-30.0 30.0)
           (-30.0 30.0)
  end
  begin
     id 16
     name head
     direction 0.00592123 0.997421 -0.0715234  
     length 1.68077  
     axis 0 0 0   XYZ
    dof rx ry rz
    limits (-20.0 45.0)
           (-30.0 30.0)
           (-30.0 30.0)
  end
  begin
     id 17 
     name lclavicle
     direction 0.904803 0.417826 0.0821728  
     length 3.42227  
     axis 0 0 0   XYZ
    dof ry rz
    limits (-20.0 10.0)
           (0.0 20.0)
  end
  begin
     id 18 
     name lhumerus
     direction 1 -4.48965e-011 -2.68786e-027   
     length 5.11878   
     axis -180 -30 -90   XYZ
    dof rx ry rz
    limits (-60.0 90.0)
           (-90.0 90.0)
           (-90.0 90.0)
  end
  begin
     id 19
     name lradius
     direction 1 -4.48965e-011 2.61168e-028   
     length 3.59971   
     axis -180 -30 -90   XYZ
    dof rx
    limits (-10.0 170.0)
  end
  begin
     id 20
     name lwrist
     direction 1 -4.48965e-011 1.58672e-027   
     length 1.79985   
     axis -1.65735e-015 90 90   XYZ
    dof ry
    limits (-180.0 0.0)
 end
  begin
     id 21 
     name lhand
     direction 1 -4.48942e-011 3.17344e-027   
     length 0.62877   
     axis -2.02492e-015 90 90   XYZ
    dof rx rz
    limits (-90.0 90.0)
           (-45.0 45.0)
  end
  begin
     id 22 
     name lfingers
     direction 1 -4.49011e-011 6.34687e-027   
     length 0.506931   
     axis -4.04985e-015 90 90   XYZ
    dof rx
    limits (0.0 90.0)
  end
  begin
     id 23
     name lthumb
     direction 0.707107 -6.34982e-011 0.707107   
     length 0.727854   
     axis -90 45 2.85299e-015   XYZ
    dof rx rz
    limits (-45.0 45.0)
           (-45.0 45.0)
  end
  begin
     id 24 
     name rclavicle
     direction -0.945647 0.32488 0.0143075   
     length 3.52737  
     axis 0 0 0   XYZ 
    dof ry rz
    limits (-10.0 20.0)
           (-20.0 0.0)
  end
  begin
     id 25 
     name rhumerus
     direction -1 -4.48962e-011 1.92182e-027  
     length 5.4902   
     axis -180 30 90   XYZ
    dof rx ry rz
    limits (-90.0 60.0)
           (-90.0 90.0)
           (-90.0 90.0)
  end
  begin
     id 26 
     name rradius
     direction -1 -4.48967e-011 -5.97193e-028   
     length 3.20659   
     axis -180 30 90   XYZ
    dof rx
    limits (-10.0 170.0)
  end
  begin
     id 27 
     name rwrist
     direction -1 -4.48964e-011 1.58672e-027   
     length 1.6033   
     axis -1.65735e-015 -90 -90   XYZ
    dof ry
    limits (-180.0 0.0)
  end
  begin
     id 28
     name rhand
     direction -1 -4.49006e-011 3.17344e-027   
     length 0.691885   
     axis -2.02492e-015 -90 -90   XYZ
    dof rx rz
    limits (-90.0 90.0)
           (-45.0 45.0)
  end
  begin
     id 29
     name rfingers
     direction -1 -4.48908e-011 6.34687e-027   
     length 0.557815   
     axis -4.04985e-015 -90 -90   XYZ
    dof rx
    limits (0.0 90.0)
  end
  begin
     id 30
     name rthumb
     direction -0.707107 -6.34999e-011 0.707107   
     length 0.800915   
     axis -90 -45 -2.85299e-015   XYZ
    dof rx rz
    limits (-45.0 45.0)
           (-45.0 45.0)
  end
:hierarchy
  begin
    root lhipjoint rhipjoint lowerback
    lhipjoint lfemur
    lfemur ltibia
    ltibia lfoot
    lfoot ltoes
    rhipjoint rfemur
    rfemur rtibia
    rtibia rfoot
    rfoot rtoes
    lowerback upperback
    upperback thorax
    thorax lowerneck lclavicle rclavicle
    lowerneck upperneck
    upperneck head
    lclavicle lhumerus
    lhumerus lradius
    lradius lwrist
    lwrist lhand lthumb
    lhand lfingers
    rclavicle rhumerus
    rhumerus rradius
    rradius rwrist
    rwrist rhand rthumb
    rhand rfingers
  end

#!OML:ASF I:\Actors\actors\Patient Classification 1\Patient 1\Session 1\Subject1.ASF
:FULLY-SPECIFIED
:DEGREES
135
root 0.590403 17.4511 9.21495 10.9801 -2.58268 -9.35606
lowerback -0.430583 0.741524 6.25351
upperback -9.86509 1.50191 2.20615
thorax -10.1782 0.311092 -1.24964
lowerneck -7.3976 -9.19847 -8.61186
upperneck 19.3174 -13.7247 10.4976
head 8.54804 -6.27588 3.48633
rclavicle 1.88845e-015 -2.66371e-014
rhumerus -47.631 -27.2047 -63.7966
rradius 20.8918
rwrist 47.6139
rhand 8.32017 -26.4192
rfingers 7.12502
rthumb 33.5314 -53.3057
lclavicle 1.88845e-015 -2.66371e-014
lhumerus -50.8142 23.9655 66.7828
lradius 19.3635
lwrist -26.0401
lhand -17.7252 -9.95443
lfingers 7.12502
lthumb 8.53555 19.8531
rfemur -6.23647 25.7435 25.0341
rtibia 1.628
rfoot -10.2951 -23.9622
rtoes 1.68096
lfemur 4.67325 -48.0747 -11.3363
ltibia -4.65758
lfoot -27.5381 55.7665
ltoes 13.9188
136
root 0.590504 17.4509 9.21529 10.9855 -2.582 -9.34187
lowerback -0.443213 0.757242 6.27716
upperback -9.84731 1.52156 2.19726
thorax -10.1486 0.319325 -1.27382
lowerneck -7.57811 -8.91503 -8.4452
upperneck 19.3034 -13.335 10.5077
head 8.52295 -6.0725 3.50609
rclavicle -6.21202e-015 7.15625e-015
rhumerus -47.3196 -25.3753 -65.4541
rradius 21.6823
rwrist 46.1871
rhand 7.92886 -26.6002
rfingers 7.12502
rthumb 33.1594 -53.5666
lclavicle -6.21202e-015 7.15625e-015
lhumerus -50.7319 23.7332 67.0339
lradius 19.5167
lwrist -25.7773
lhand -17.603 -9.86669
lfingers 7.12502
lthumb 8.65351 19.9359
rfemur -6.24015 25.7719 25.0131
rtibia 1.64129
rfoot -10.4085 -23.9782
rtoes 2.04409
lfemur 4.69395 -48.1647 -11.3765
ltibia -4.65151
lfoot -27.6758 55.818
ltoes 14.0741
137
root 0.590742 17.4509 9.21609 10.9987 -2.58568 -9.34497
lowerback -0.451778 0.782627 6.32137
upperback -9.84058 1.55631 2.188
thorax -10.133 0.332647 -1.31091
lowerneck -7.85983 -8.69821 -8.13192
upperneck 19.3587 -13.0097 10.2705
head 8.51961 -5.90532 3.40666
rclavicle 1.92821e-014 -2.8625e-014
rhumerus -47.0835 -23.1683 -67.3847
rradius 22.7222
rwrist 44.6642
rhand 7.49914 -26.762
rfingers 7.12502
rthumb 32.7507 -53.8145
lclavicle 1.92821e-014 -2.8625e-014
lhumerus -50.609 23.3747 67.3976
lradius 19.6769
lwrist -25.3337
lhand -17.4997 -9.70621
lfingers 7.12502
lthumb 8.75319 20.0923
rfemur -6.26119 25.7749 25.0109
rtibia 1.66558
rfoot -10.3615 -23.9753
rtoes 1.86341
lfemur 4.71145 -48.255 -11.3957
ltibia -4.64618
lfoot -27.7633 55.8987
ltoes 14.0326
138
root 0.590887 17.4504 9.21855 10.9945 -2.60505 -9.3298
lowerback -0.473931 0.832947 6.36008
upperback -9.8214 1.62116 2.16162
thorax -10.0921 0.361252 -1.36553
lowerneck -8.09482 -8.50325 -7.86953
upperneck 19.4005 -12.7312 10.1249
head 8.51977 -5.75796 3.34193
rclavicle -1.31198e-014 1.86858e-014
rhumerus -46.984 -20.6163 -69.5404
rradius 24.0695
rwrist 43.0026
rhand 7.04362 -26.9857
rfingers 7.12502
rthumb 32.3172 -54.1276
lclavicle -1.31198e-014 1.86858e-014
lhumerus -50.436 22.8748 67.9028
lradius 19.8935
lwrist -24.7073
lhand -17.4672 -9.58608
lfingers 7.12502
lthumb 8.7845 20.2111
rfemur -6.23998 25.762 25.0002
rtibia 1.65186
rfoot -10.2669 -23.9513
rtoes 1.48716
lfemur 4.76998 -48.3191 -11.4673
ltibia -4.64204
lfoot -27.9143 55.9391
ltoes 14.1401
139
root 0.591017 17.4507 9.2221 10.9933 -2.58658 -9.31857
lowerback -0.546034 0.886221 6.40101
upperback -9.77787 1.68418 2.13411
thorax -9.99355 0.390874 -1.42169
lowerneck -8.38306 -8.28269 -7.6463
upperneck 19.4719 -12.4341 10.0796
head 8.54868 -5.59303 3.31718
rclavicle -2.73329e-015 9.93923e-015
rhumerus -47.0426 -18.0015 -71.68
rradius 25.5995
rwrist 41.7667
rhand 6.30742 -27.2295
rfingers 7.12502
rthumb 31.6162 -54.5117
lclavicle -2.73329e-015 9.93923e-015
lhumerus -50.1994 22.2298 68.5812
lradius 20.2048
lwrist -23.8162
lhand -17.4644 -9.62984
lfingers 7.12502
lthumb 8.78719 20.1672
rfemur -6.20029 25.773 25.0018
rtibia 1.60742
rfoot -10.2697 -23.9932
rtoes 1.48986
lfemur 4.79026 -48.3354 -11.5036
ltibia -4.63074
lfoot -27.9506 55.9314
ltoes 14.2747
140
root 0.590793 17.451 9.22576 11.0199 -2.56181 -9.33059
lowerback -0.621868 0.927317 6.44234
upperback -9.74848 1.7335 2.13602
thorax -9.91087 0.414678 -1.44521
lowerneck -8.70203 -8.0417 -7.51141
upperneck 19.5756 -12.1203 10.1375
head 8.60605 -5.41543 3.34251
rclavicle -7.60351e-015 9.93923e-015
rhumerus -47.2871 -15.548 -73.5745
rradius 27.1999
rwrist 41.671
rhand 5.22771 -27.2871
rfingers 7.12502
rthumb 30.5871 -54.7664
lclavicle -7.60351e-015 9.93923e-015
lhumerus -49.9806 21.4689 69.4054
lradius 20.6019
lwrist -22.6888
lhand -17.5268 -9.65243
lfingers 7.12502
lthumb 8.72702 20.1472
rfemur -6.19519 25.7958 25.0154
rtibia 1.57081
rfoot -10.3084 -24.0302
rtoes 1.68055
lfemur 4.7387 -48.2783 -11.4486
ltibia -4.63139
lfoot -27.7701 55.9134
ltoes 14.1057
141
root 0.590092 17.4505 9.22956 11.0173 -2.56147 -9.33659
lowerback -0.625769 0.959499 6.47007
upperback -9.73865 1.77868 2.15031
thorax -9.89435 0.435981 -1.44868
lowerneck -8.88586 -7.77317 -7.38874
upperneck 19.614 -11.7639 10.184
head 8.61247 -5.2263 3.37699
rclavicle -2.47984e-014 4.37326e-015
rhumerus -47.7216 -13.0768 -75.364
rradius 28.9152
rwrist 42.5873
rhand 3.78059 -27.0761
rfingers 7.12502
rthumb 29.2062 -54.8042
lclavicle -2.47984e-014 4.37326e-015
lhumerus -49.8612 20.6281 70.2984
lradius 21.1318
lwrist -21.5141
lhand -17.5349 -9.59701
lfingers 7.12502
lthumb 8.71917 20.2029
rfemur -6.174 25.7971 25.0299
rtibia 1.57183
rfoot -10.3197 -24.0184
rtoes 1.70451
lfemur 4.77686 -48.2929 -11.4672
ltibia -4.64505
lfoot -27.7151 55.9447
ltoes 13.933
142
root 0.589799 17.4503 9.23339 10.9634 -2.52926 -9.33621
lowerback -0.592018 0.965693 6.49855
upperback -9.72011 1.79133 2.15913
thorax -9.89268 0.440654 -1.45668
lowerneck -9.08818 -7.43633 -6.86175
upperneck 19.7816 -11.3073 9.84583
head 8.60816 -4.99205 3.22838
rclavicle 9.14409e-015 1.59028e-015
rhumerus -48.3257 -10.5804 -77.1502
rradius 30.8217
rwrist 44.2453
rhand 1.99715 -26.9187
rfingers 7.12502
rthumb 27.5019 -54.9303
lclavicle 9.14409e-015 1.59028e-015
lhumerus -49.786 19.6393 71.309
lradius 21.8253
lwrist -20.1161
lhand -17.333 -9.62293
lfingers 7.12502
lthumb 8.91406 20.1688
rfemur -6.09518 25.7494 25.0676
rtibia 1.57377
rfoot -10.2895 -24.0173
rtoes 1.49904
lfemur 4.92759 -48.411 -11.5812
ltibia -4.66793
lfoot -27.7904 56.0095
ltoes 13.9289
143
root 0.589889 17.4511 9.2371 10.9231 -2.45808 -9.34444
lowerback -0.596717 0.953161 6.52917
upperback -9.69326 1.77552 2.17685
thorax -9.86095 0.432681 -1.45356
lowerneck -9.29017 -7.24666 -6.61503
upperneck 19.8846 -11.0506 9.70474
head 8.63295 -4.85611 3.16603
rclavicle -5.91384e-015 -2.64384e-014
rhumerus -49.0634 -8.26953 -78.7802
rradius 32.8897
rwrist 46.4722
rhand 0.205224 -26.9861
rfingers 7.12502
rthumb 25.7869 -55.2585
lclavicle -5.91384e-015 -2.64384e-014
lhumerus -49.7095 18.4739 72.4925
lradius 22.6696
lwrist -18.4333
lhand -17.1242 -9.45493
lfingers 7.12502
lthumb 9.11551 20.3281
rfemur -6.01898 25.7168 25.1144
rtibia 1.5513
rfoot -10.2555 -24.0438
rtoes 1.26477
lfemur 4.96286 -48.3623 -11.5919
ltibia -4.6673
lfoot -27.6551 55.9154
ltoes 13.8154
144
root 0.59 17.4515 9.24049 10.9361 -2.38806 -9.34198
lowerback -0.645123 0.951716 6.53595
upperback -9.69056 1.77113 2.19699
thorax -9.82994 0.432076 -1.43466
lowerneck -9.44645 -7.00315 -6.43394
upperneck 19.983 -10.7221 9.62473
head 8.64958 -4.68727 3.14545
rclavicle -6.36111e-015 -1.41137e-014
rhumerus -49.9394 -6.07431 -80.268
rradius 35.1092
rwrist 48.526
rhand -1.49622 -27.031
rfingers 7.12502
rthumb 24.1565 -55.53
lclavicle -6.36111e-015 -1.41137e-014
lhumerus -49.6715 17.3396 73.651
lradius 23.5417
lwrist -16.8395
lhand -17.0455 -9.16703
lfingers 7.12502
lthumb 9.19141 20.6127
rfemur -6.01726 25.7401 25.1174
rtibia 1.55372
rfoot -10.2959 -24.1289
rtoes 1.31083
lfemur 4.86061 -48.2171 -11.506
ltibia -4.65434
lfoot -27.3949 55.7601
ltoes 13.6242
145
root 0.589735 17.4513 9.24331 10.9594 -2.33733 -9.31485
lowerback -0.687017 0.955296 6.48771
upperback -9.69914 1.77265 2.22352
thorax -9.8158 0.438651 -1.37904
lowerneck -9.61515 -6.79397 -6.22438
upperneck 20.11 -10.4341 9.47285
head 8.67718 -4.54111 3.09051
rclavicle -1.56543e-014 4.29375e-014
rhumerus -50.8878 -3.96022 -81.6717
rradius 37.457
rwrist 49.8387
rhand -3.28896 -26.9705
rfingers 7.12502
rthumb 22.4366 -55.6873
lclavicle -1.56543e-014 4.29375e-014
lhumerus -49.7053 16.2059 74.8195
lradius 24.5295
lwrist -15.1959
lhand -16.8143 -9.07857
lfingers 7.12502
lthumb 9.41452 20.6912
rfemur -6.06103 25.7372 25.0755
rtibia 1.60235
rfoot -10.3854 -24.2063
rtoes 1.58564
lfemur 4.77917 -48.178 -11.4644
ltibia -4.65416
lfoot -27.2873 55.6982
ltoes 13.5313
